<svg width="83" height="76" viewBox="0 0 83 76" fill="none" xmlns="http://www.w3.org/2000/svg">
<g filter="url(#filter0_d_1_42)">
<path fill-rule="evenodd" clip-rule="evenodd" d="M40.1326 32.6132V27.5966V32.6132Z" fill="#FF8B15"/>
<path d="M40.1326 32.6132V27.5966" stroke="#FF8B15" stroke-width="1.33139" stroke-linecap="square"/>
<path fill-rule="evenodd" clip-rule="evenodd" d="M76.5027 67.7293C76.5027 47.6426 60.2193 31.3591 40.1326 31.3591C20.0459 31.3591 3.76241 47.6426 3.76241 67.7293H76.5027Z" fill="#FF8B15"/>
<path d="M40.1326 37.6298C28.3285 37.6298 18.1115 44.4246 13.1795 54.3163" stroke="white" stroke-width="1.33139" stroke-linecap="round"/>
<path d="M77.1298 67.7293H3.13536C1.40375 67.7293 0 69.1331 0 70.8647C0 72.5963 1.40375 74 3.13536 74H77.1298C78.8615 74 80.2652 72.5963 80.2652 70.8647C80.2652 69.1331 78.8615 67.7293 77.1298 67.7293Z" fill="#F16C0D"/>
<path fill-rule="evenodd" clip-rule="evenodd" d="M35.1161 25.0884H45.1492V28.8508H35.1161V25.0884Z" fill="#FF8B15"/>
<path fill-rule="evenodd" clip-rule="evenodd" d="M57.1228 0C52.2157 0 48.2377 2.9623 48.2377 8.97482C48.2377 14.9873 61.6525 28.5083 63.9173 28.5083C66.1821 28.5083 79.5968 14.9873 79.5968 8.97482C79.5968 2.9623 75.6188 0 70.7117 0C67.9861 0 65.5471 1.23969 63.9173 3.19132C62.2874 1.23969 59.8484 0 57.1228 0Z" fill="#D13F00"/>
<path d="M57.8733 4.2825C54.6615 4.2825 51.4496 7.49437 53.5908 11.7769" stroke="white" stroke-width="1.51321" stroke-linecap="round"/>
</g>
<defs>
<filter id="filter0_d_1_42" x="0" y="0" width="82.2652" height="76" filterUnits="userSpaceOnUse" color-interpolation-filters="sRGB">
<feFlood flood-opacity="0" result="BackgroundImageFix"/>
<feColorMatrix in="SourceAlpha" type="matrix" values="0 0 0 0 0 0 0 0 0 0 0 0 0 0 0 0 0 0 127 0" result="hardAlpha"/>
<feOffset dx="1" dy="1"/>
<feGaussianBlur stdDeviation="0.5"/>
<feComposite in2="hardAlpha" operator="out"/>
<feColorMatrix type="matrix" values="0 0 0 0 0 0 0 0 0 0 0 0 0 0 0 0 0 0 0.25 0"/>
<feBlend mode="normal" in2="BackgroundImageFix" result="effect1_dropShadow_1_42"/>
<feBlend mode="normal" in="SourceGraphic" in2="effect1_dropShadow_1_42" result="shape"/>
</filter>
</defs>
</svg>
