<svg width="34" height="34" viewBox="0 0 34 34" fill="none" xmlns="http://www.w3.org/2000/svg">
<rect x="0.905605" y="0.905605" width="31.6568" height="31.6568" rx="15.8284" stroke="#3E197C" stroke-width="1.81121"/>
<path d="M16.365 18.7511V24.342H13.0569H12.9544V24.4446V25.9604V26.063H13.0569H21.394H21.4966V25.9604V24.4446V24.342H21.394H18.0859V18.7511L26.3963 9.64928L26.4231 9.61991V9.58014V7.39136V7.28882H26.3205H8.13042H8.02787V7.39136V9.58014V9.61991L8.05469 9.64928L16.365 18.7511ZM9.80115 9.00974H24.6498L22.415 11.4574H12.0359L9.80115 9.00974ZM13.6072 13.1783H20.8438L17.2255 17.1411L13.6072 13.1783Z" fill="#3E197C" stroke="#3E197C" stroke-width="0.205085"/>
<path d="M17.2255 19.518L11.9745 12.6967L22.4765 12.6967L17.2255 19.518Z" fill="#3E197C"/>
</svg>
