<svg width="36" height="35" viewBox="0 0 36 35" fill="none" xmlns="http://www.w3.org/2000/svg">
<rect x="1.7868" y="0.905605" width="33.07" height="33.07" rx="16.535" fill="#FFA915" stroke="#3E197C" stroke-width="1.81121"/>
<path d="M14.4291 16.7386C14.4291 16.7386 13.2792 16.6559 12.9845 16.3612C12.6898 16.0665 12.6898 15.5886 12.9845 15.2939C13.2792 14.9992 13.7571 14.9992 14.0518 15.2939C14.3465 15.5886 14.4291 16.7386 14.4291 16.7386Z" fill="#3E197C"/>
<mask id="path-3-outside-1_34_18" maskUnits="userSpaceOnUse" x="7.22841" y="4.67386" width="22" height="13" fill="black">
<rect fill="white" x="7.22841" y="4.67386" width="22" height="13"/>
<path d="M11.9603 14.9182L12.7293 11.4284C12.7293 11.4284 9.83098 11.1918 10.2746 8.6189C10.2746 8.6189 14.0305 9.86103 15.0952 8.79634C15.0952 8.79634 17.4489 6.28159 21.2066 8.78015C22.4604 9.61383 26.0272 8.60272 26.0272 8.60272C26.4708 11.1757 23.5725 11.4123 23.5725 11.4123L24.3415 14.902"/>
</mask>
<path d="M9.30716 14.3336C8.9843 15.7989 9.91043 17.2485 11.3757 17.5714C12.841 17.8942 14.2906 16.9681 14.6135 15.5028L9.30716 14.3336ZM12.7293 11.4284L15.3824 12.013C15.5512 11.2469 15.3806 10.4452 14.9145 9.81419C14.4484 9.18318 13.7322 8.78446 12.9503 8.72063L12.7293 11.4284ZM10.2746 8.6189L11.1276 6.03949C10.3768 5.79119 9.55513 5.88234 8.877 6.28914C8.19887 6.69594 7.73164 7.37801 7.59728 8.15729L10.2746 8.6189ZM15.0952 8.79634L17.0163 10.7174C17.0375 10.6962 17.0583 10.6747 17.0787 10.6529L15.0952 8.79634ZM21.2066 8.78015L22.7109 6.51781L22.7109 6.5178L21.2066 8.78015ZM26.0272 8.60272L28.7045 8.14111C28.5736 7.38197 28.1266 6.71409 27.4747 6.30365C26.8229 5.89321 26.0274 5.7788 25.2862 5.9889L26.0272 8.60272ZM23.5725 11.4123L23.3515 8.70444C22.5696 8.76827 21.8534 9.16699 21.3873 9.798C20.9212 10.429 20.7506 11.2307 20.9194 11.9968L23.5725 11.4123ZM21.6883 15.4866C22.0112 16.9519 23.4608 17.878 24.9261 17.5552C26.3914 17.2323 27.3175 15.7827 26.9946 14.3174L21.6883 15.4866ZM14.6135 15.5028L15.3824 12.013L10.0761 10.8438L9.30716 14.3336L14.6135 15.5028ZM12.7293 11.4284C12.9503 8.72063 12.9515 8.72073 12.9527 8.72082C12.953 8.72085 12.9542 8.72095 12.9549 8.72101C12.9564 8.72114 12.9579 8.72126 12.9593 8.72138C12.9622 8.72163 12.9649 8.72186 12.9674 8.72209C12.9726 8.72254 12.9771 8.72297 12.9811 8.72335C12.9891 8.72412 12.9949 8.72473 12.9987 8.72516C13.0062 8.726 13.0061 8.72612 12.9998 8.72518C12.9861 8.72318 12.952 8.71762 12.9064 8.70686C12.7988 8.6815 12.7167 8.64853 12.6793 8.62726C12.6465 8.60864 12.758 8.66258 12.8564 8.84299C12.9751 9.06076 12.9319 9.19645 12.9519 9.08052L7.59728 8.15729C7.39546 9.32782 7.54821 10.4579 8.08558 11.4437C8.60259 12.3921 9.35548 12.9876 9.99188 13.3498C10.6236 13.7093 11.2384 13.8963 11.6603 13.9957C11.8794 14.0473 12.0683 14.0803 12.2114 14.1013C12.2834 14.1119 12.3452 14.1196 12.395 14.1251C12.4199 14.1279 12.4419 14.1302 12.4608 14.132C12.4703 14.1329 12.479 14.1337 12.4869 14.1344C12.4908 14.1348 12.4946 14.1351 12.4982 14.1354C12.4999 14.1356 12.5017 14.1357 12.5033 14.1358C12.5042 14.1359 12.5054 14.136 12.5058 14.136C12.507 14.1361 12.5082 14.1362 12.7293 11.4284ZM10.2746 8.6189C9.42155 11.1983 9.42199 11.1985 9.42245 11.1986C9.42262 11.1987 9.4231 11.1988 9.42344 11.1989C9.42413 11.1992 9.42488 11.1994 9.42569 11.1997C9.4273 11.2002 9.42915 11.2008 9.43123 11.2015C9.43539 11.2029 9.44048 11.2045 9.44648 11.2065C9.45846 11.2104 9.47408 11.2154 9.49311 11.2215C9.53117 11.2336 9.58305 11.2498 9.64714 11.2693C9.77502 11.3083 9.95314 11.3606 10.1683 11.4188C10.5925 11.5336 11.1886 11.6791 11.842 11.7872C12.4739 11.8918 13.2746 11.9815 14.0726 11.9286C14.7689 11.8825 16.0374 11.6963 17.0163 10.7174L13.1741 6.87529C13.6207 6.4287 14.0204 6.48655 13.7131 6.50692C13.5073 6.52056 13.1695 6.4994 12.7293 6.42653C12.3107 6.35725 11.9012 6.25869 11.5879 6.17391C11.4343 6.13232 11.3107 6.09592 11.229 6.07106C11.1883 6.05868 11.1584 6.04929 11.141 6.04373C11.1322 6.04095 11.1266 6.03914 11.1243 6.03839C11.1232 6.03802 11.1229 6.03792 11.1234 6.03809C11.1237 6.03818 11.1242 6.03834 11.1249 6.03857C11.1252 6.03869 11.1256 6.03882 11.1261 6.03898C11.1263 6.03905 11.1267 6.03918 11.1268 6.03922C11.1272 6.03935 11.1276 6.03949 10.2746 8.6189ZM15.0952 8.79634C17.0787 10.6529 17.0775 10.6541 17.0764 10.6553C17.076 10.6557 17.0749 10.657 17.0741 10.6578C17.0726 10.6594 17.0711 10.6609 17.0697 10.6625C17.0668 10.6655 17.064 10.6685 17.0613 10.6713C17.056 10.6769 17.0511 10.6819 17.0466 10.6865C17.0377 10.6957 17.0305 10.7029 17.0249 10.7083C17.0139 10.7191 17.0094 10.7231 17.011 10.7216C17.0147 10.7183 17.0404 10.6958 17.0858 10.6638C17.1802 10.5974 17.3293 10.5113 17.52 10.4542C17.7855 10.3749 18.4792 10.2292 19.7023 11.0425L22.7109 6.5178C20.1763 4.83251 17.8143 4.69496 15.9635 5.24832C15.096 5.50768 14.4219 5.89406 13.9575 6.22107C13.7235 6.38583 13.536 6.54024 13.3963 6.6647C13.3262 6.72714 13.2675 6.78271 13.2201 6.82912C13.1965 6.85235 13.1756 6.87337 13.1575 6.89188C13.1485 6.90115 13.1401 6.90979 13.1325 6.91779C13.1287 6.92179 13.125 6.92562 13.1215 6.92929C13.1198 6.93113 13.1181 6.93292 13.1165 6.93468C13.1156 6.93555 13.1144 6.93684 13.114 6.93727C13.1128 6.93855 13.1117 6.93981 15.0952 8.79634ZM19.7023 11.0425C20.6422 11.6674 21.7085 11.7893 22.3695 11.8183C23.1124 11.851 23.8585 11.7804 24.4683 11.694C25.0922 11.6056 25.6575 11.4882 26.0618 11.3948C26.2661 11.3476 26.4348 11.3052 26.5558 11.2738C26.6163 11.258 26.6653 11.2449 26.7011 11.2351C26.719 11.2302 26.7337 11.2262 26.7449 11.2231C26.7506 11.2215 26.7553 11.2202 26.7592 11.2191C26.7611 11.2185 26.7629 11.218 26.7643 11.2176C26.7651 11.2174 26.7658 11.2172 26.7664 11.217C26.7667 11.2169 26.7672 11.2168 26.7673 11.2168C26.7678 11.2167 26.7682 11.2165 26.0272 8.60272C25.2862 5.9889 25.2866 5.98879 25.287 5.98868C25.2871 5.98866 25.2875 5.98855 25.2877 5.9885C25.2881 5.98838 25.2885 5.98827 25.2888 5.98818C25.2894 5.988 25.2898 5.98789 25.29 5.98782C25.2905 5.9877 25.2901 5.98781 25.2889 5.98813C25.2866 5.98878 25.2811 5.99031 25.2726 5.99263C25.2555 5.99727 25.2266 6.00505 25.1872 6.0153C25.1082 6.03586 24.9885 6.06601 24.8388 6.10057C24.5352 6.17071 24.1304 6.25397 23.7059 6.31412C23.2673 6.37628 22.8865 6.40218 22.6081 6.38994C22.2477 6.3741 22.398 6.30972 22.7109 6.51781L19.7023 11.0425ZM23.3499 9.06433C23.3699 9.18027 23.3267 9.04457 23.4454 8.8268C23.5438 8.64639 23.6553 8.59245 23.6225 8.61107C23.5851 8.63234 23.503 8.66531 23.3954 8.69067C23.3498 8.70143 23.3157 8.70699 23.302 8.70899C23.2957 8.70993 23.2956 8.70981 23.3031 8.70897C23.3069 8.70855 23.3127 8.70793 23.3207 8.70716C23.3247 8.70678 23.3292 8.70636 23.3344 8.7059C23.3369 8.70567 23.3396 8.70544 23.3425 8.70519C23.3439 8.70507 23.3454 8.70495 23.3469 8.70482C23.3476 8.70476 23.3488 8.70467 23.3491 8.70464C23.3503 8.70454 23.3515 8.70444 23.5725 11.4123C23.7936 14.1201 23.7948 14.12 23.796 14.1199C23.7964 14.1198 23.7976 14.1197 23.7985 14.1197C23.8001 14.1195 23.8019 14.1194 23.8036 14.1192C23.8072 14.1189 23.811 14.1186 23.8149 14.1182C23.8228 14.1175 23.8315 14.1167 23.841 14.1158C23.8599 14.114 23.8819 14.1117 23.9068 14.109C23.9566 14.1034 24.0184 14.0957 24.0904 14.0851C24.2335 14.0641 24.4224 14.0311 24.6415 13.9795C25.0634 13.8801 25.6782 13.6931 26.3099 13.3336C26.9463 12.9714 27.6992 12.3759 28.2162 11.4275C28.7536 10.4418 28.9063 9.31163 28.7045 8.14111L23.3499 9.06433ZM20.9194 11.9968L21.6883 15.4866L26.9946 14.3174L26.2257 10.8277L20.9194 11.9968Z" fill="#3E197C" mask="url(#path-3-outside-1_34_18)"/>
<path d="M15.3049 22.3765H21.2393C21.342 22.3765 21.4403 22.4194 21.5066 22.4977C21.8261 22.8748 22.6931 24.1381 22.2969 26.3831C22.2276 26.7757 21.8574 27.0404 21.4653 26.9682C20.1537 26.7264 17.1922 26.293 15.1412 26.845C14.7239 26.9573 14.3086 26.6737 14.257 26.2447C14.143 25.297 14.1379 23.7435 15.0156 22.5209C15.0817 22.4289 15.1917 22.3765 15.3049 22.3765V22.3765Z" fill="#3E197C"/>
<path d="M15.8274 23.9903C15.8274 23.9903 15.5684 25.0677 17.0175 25.0945" stroke="#FFA915" stroke-width="0.905605" stroke-miterlimit="10" stroke-linecap="round" stroke-linejoin="round"/>
<path d="M15.5484 28.2126C15.5484 28.2126 17.9439 31.1996 20.7534 28.3309" stroke="#3E197C" stroke-width="2.71681" stroke-miterlimit="10" stroke-linecap="round" stroke-linejoin="round"/>
<path d="M11.1674 12.6236C10.0111 11.8849 8.38286 10.8925 6.4749 11.3622C6.4749 11.3622 5.91298 16.656 12.2714 17.2179L12.7293 17.5504C12.7293 17.5504 11.8649 20.9155 13.2054 23.6264" stroke="#3E197C" stroke-width="2.71681" stroke-miterlimit="10" stroke-linecap="round" stroke-linejoin="round"/>
<path d="M21.8726 16.7214C21.8726 16.7214 23.0226 16.6388 23.3173 16.3441C23.612 16.0493 23.612 15.5715 23.3173 15.2768C23.0226 14.982 22.5447 14.982 22.25 15.2768C21.9553 15.5715 21.8726 16.7214 21.8726 16.7214Z" fill="#3E197C"/>
<path d="M20.8517 23.9742C20.8517 23.9742 21.1108 25.0515 19.6616 25.0783" stroke="#FFA915" stroke-width="0.905605" stroke-miterlimit="10" stroke-linecap="round" stroke-linejoin="round"/>
<path d="M25.2262 12.5497C26.3761 11.8372 27.9689 10.8887 29.8269 11.3461C29.8269 11.3461 30.3888 16.6398 24.0303 17.2018L23.5725 17.5342C23.5725 17.5342 24.5303 20.5444 23.1898 23.2553" stroke="#3E197C" stroke-width="2.71681" stroke-miterlimit="10" stroke-linecap="round" stroke-linejoin="round"/>
</svg>
