<svg width="36" height="35" viewBox="0 0 36 35" fill="none" xmlns="http://www.w3.org/2000/svg">
<rect x="1.7868" y="0.90562" width="33.07" height="33.07" rx="16.535" stroke="#3E197C" stroke-width="1.81121"/>
<path d="M14.4291 16.7386C14.4291 16.7386 13.2792 16.656 12.9845 16.3612C12.6898 16.0665 12.6898 15.5887 12.9845 15.2939C13.2792 14.9992 13.7571 14.9992 14.0518 15.2939C14.3465 15.5887 14.4291 16.7386 14.4291 16.7386Z" fill="#3E197C"/>
<mask id="path-3-outside-1_30_18" maskUnits="userSpaceOnUse" x="7.2284" y="4.67387" width="22" height="13" fill="black">
<rect fill="white" x="7.2284" y="4.67387" width="22" height="13"/>
<path d="M11.9603 14.9182L12.7293 11.4285C12.7293 11.4285 9.83097 11.1919 10.2746 8.61892C10.2746 8.61892 14.0305 9.86105 15.0952 8.79635C15.0952 8.79635 17.4489 6.2816 21.2066 8.78016C22.4604 9.61385 26.0272 8.60273 26.0272 8.60273C26.4708 11.1757 23.5725 11.4123 23.5725 11.4123L24.3415 14.902"/>
</mask>
<path d="M9.30716 14.3336C8.98429 15.7989 9.91042 17.2485 11.3757 17.5714C12.841 17.8942 14.2906 16.9681 14.6135 15.5028L9.30716 14.3336ZM12.7293 11.4285L15.3824 12.0131C15.5512 11.2469 15.3806 10.4452 14.9145 9.8142C14.4484 9.18319 13.7322 8.78448 12.9503 8.72065L12.7293 11.4285ZM10.2746 8.61892L11.1276 6.0395C10.3768 5.79121 9.55512 5.88236 8.87699 6.28915C8.19887 6.69595 7.73164 7.37802 7.59727 8.15731L10.2746 8.61892ZM15.0952 8.79635L17.0163 10.7174C17.0374 10.6962 17.0583 10.6747 17.0787 10.6529L15.0952 8.79635ZM21.2066 8.78016L22.7109 6.51783L22.7109 6.51781L21.2066 8.78016ZM26.0272 8.60273L28.7045 8.14112C28.5736 7.38199 28.1266 6.7141 27.4747 6.30366C26.8229 5.89322 26.0274 5.77882 25.2862 5.98891L26.0272 8.60273ZM23.5725 11.4123L23.3515 8.70446C22.5696 8.76829 21.8534 9.167 21.3873 9.79801C20.9212 10.429 20.7505 11.2307 20.9194 11.9969L23.5725 11.4123ZM21.6883 15.4866C22.0112 16.9519 23.4608 17.878 24.9261 17.5552C26.3914 17.2323 27.3175 15.7827 26.9946 14.3174L21.6883 15.4866ZM14.6135 15.5028L15.3824 12.0131L10.0761 10.8439L9.30716 14.3336L14.6135 15.5028ZM12.7293 11.4285C12.9503 8.72065 12.9515 8.72074 12.9526 8.72084C12.953 8.72087 12.9542 8.72097 12.9549 8.72103C12.9564 8.72115 12.9579 8.72128 12.9593 8.7214C12.9622 8.72164 12.9649 8.72188 12.9674 8.7221C12.9726 8.72256 12.9771 8.72298 12.9811 8.72336C12.9891 8.72413 12.9949 8.72475 12.9987 8.72517C13.0062 8.72602 13.0061 8.72613 12.9998 8.7252C12.9861 8.72319 12.952 8.71763 12.9064 8.70687C12.7987 8.68152 12.7166 8.64855 12.6793 8.62727C12.6465 8.60866 12.758 8.6626 12.8564 8.84301C12.9751 9.06078 12.9319 9.19647 12.9519 9.08053L7.59727 8.15731C7.39546 9.32784 7.5482 10.458 8.08558 11.4437C8.60259 12.3921 9.35547 12.9877 9.99187 13.3498C10.6236 13.7093 11.2384 13.8963 11.6603 13.9957C11.8794 14.0473 12.0683 14.0803 12.2114 14.1013C12.2834 14.1119 12.3452 14.1196 12.395 14.1252C12.4199 14.1279 12.4419 14.1302 12.4608 14.132C12.4703 14.1329 12.479 14.1337 12.4869 14.1344C12.4908 14.1348 12.4946 14.1351 12.4981 14.1354C12.4999 14.1356 12.5016 14.1357 12.5033 14.1359C12.5042 14.1359 12.5054 14.136 12.5058 14.1361C12.507 14.1362 12.5082 14.1363 12.7293 11.4285ZM10.2746 8.61892C9.42154 11.1983 9.42199 11.1985 9.42244 11.1986C9.42262 11.1987 9.42309 11.1988 9.42343 11.199C9.42412 11.1992 9.42487 11.1994 9.42568 11.1997C9.42729 11.2002 9.42914 11.2008 9.43122 11.2015C9.43539 11.2029 9.44048 11.2045 9.44647 11.2065C9.45845 11.2104 9.47407 11.2154 9.49311 11.2215C9.53116 11.2336 9.58304 11.2498 9.64713 11.2694C9.77501 11.3083 9.95314 11.3606 10.1682 11.4188C10.5925 11.5337 11.1885 11.6791 11.842 11.7872C12.4738 11.8918 13.2746 11.9816 14.0725 11.9287C14.7689 11.8825 16.0374 11.6963 17.0163 10.7174L13.1741 6.87531C13.6206 6.42871 14.0204 6.48656 13.7131 6.50693C13.5073 6.52058 13.1695 6.49941 12.7293 6.42655C12.3107 6.35726 11.9011 6.25871 11.5879 6.17392C11.4343 6.13234 11.3107 6.09593 11.229 6.07108C11.1883 6.05869 11.1584 6.04931 11.1409 6.04374C11.1322 6.04096 11.1266 6.03915 11.1243 6.03841C11.1232 6.03803 11.1229 6.03793 11.1234 6.03811C11.1237 6.0382 11.1242 6.03836 11.1249 6.03859C11.1252 6.0387 11.1256 6.03884 11.1261 6.03899C11.1263 6.03907 11.1267 6.03919 11.1268 6.03923C11.1272 6.03936 11.1276 6.0395 10.2746 8.61892ZM15.0952 8.79635C17.0787 10.6529 17.0775 10.6541 17.0764 10.6554C17.076 10.6558 17.0749 10.657 17.0741 10.6578C17.0726 10.6594 17.0711 10.6609 17.0697 10.6625C17.0668 10.6655 17.064 10.6685 17.0613 10.6713C17.056 10.6769 17.0511 10.6819 17.0466 10.6865C17.0377 10.6957 17.0305 10.7029 17.0249 10.7083C17.0139 10.7191 17.0094 10.7231 17.011 10.7216C17.0147 10.7183 17.0404 10.6958 17.0858 10.6638C17.1801 10.5974 17.3293 10.5113 17.52 10.4543C17.7855 10.3749 18.4792 10.2292 19.7023 11.0425L22.7109 6.51781C20.1763 4.83253 17.8143 4.69498 15.9635 5.24833C15.096 5.50769 14.4219 5.89408 13.9575 6.22108C13.7235 6.38584 13.536 6.54025 13.3963 6.66471C13.3262 6.72716 13.2675 6.78273 13.2201 6.82914C13.1964 6.85237 13.1756 6.87338 13.1575 6.8919C13.1485 6.90116 13.1401 6.90981 13.1325 6.9178C13.1287 6.9218 13.125 6.92564 13.1215 6.92931C13.1198 6.93115 13.1181 6.93294 13.1165 6.93469C13.1156 6.93557 13.1144 6.93685 13.114 6.93729C13.1128 6.93856 13.1116 6.93982 15.0952 8.79635ZM19.7023 11.0425C20.6422 11.6674 21.7085 11.7893 22.3695 11.8183C23.1124 11.851 23.8585 11.7804 24.4683 11.694C25.0922 11.6056 25.6575 11.4882 26.0618 11.3948C26.2661 11.3476 26.4348 11.3053 26.5557 11.2738C26.6163 11.258 26.6653 11.2449 26.7011 11.2351C26.719 11.2302 26.7337 11.2262 26.7449 11.2231C26.7505 11.2215 26.7553 11.2202 26.7592 11.2191C26.7611 11.2185 26.7628 11.2181 26.7643 11.2176C26.7651 11.2174 26.7658 11.2172 26.7664 11.217C26.7667 11.217 26.7672 11.2168 26.7673 11.2168C26.7678 11.2167 26.7682 11.2166 26.0272 8.60273C25.2862 5.98891 25.2866 5.9888 25.287 5.9887C25.2871 5.98867 25.2874 5.98857 25.2877 5.98851C25.2881 5.98839 25.2884 5.98829 25.2888 5.9882C25.2894 5.98802 25.2898 5.9879 25.29 5.98784C25.2905 5.98772 25.2901 5.98782 25.2889 5.98815C25.2866 5.9888 25.2811 5.99033 25.2726 5.99265C25.2555 5.99729 25.2266 6.00507 25.1872 6.01532C25.1082 6.03588 24.9885 6.06602 24.8388 6.10058C24.5352 6.17073 24.1304 6.25399 23.7059 6.31414C23.2673 6.37629 22.8865 6.40219 22.6081 6.38995C22.2477 6.37412 22.398 6.30974 22.7109 6.51783L19.7023 11.0425ZM23.3499 9.06434C23.3699 9.18028 23.3267 9.04459 23.4454 8.82682C23.5438 8.64641 23.6552 8.59247 23.6225 8.61108C23.5851 8.63236 23.503 8.66533 23.3954 8.69068C23.3497 8.70144 23.3157 8.707 23.302 8.70901C23.2956 8.70994 23.2956 8.70983 23.3031 8.70899C23.3069 8.70856 23.3127 8.70794 23.3207 8.70718C23.3247 8.70679 23.3292 8.70637 23.3344 8.70592C23.3369 8.70569 23.3396 8.70545 23.3425 8.70521C23.3439 8.70509 23.3454 8.70497 23.3469 8.70484C23.3476 8.70478 23.3488 8.70468 23.3491 8.70465C23.3503 8.70456 23.3515 8.70446 23.5725 11.4123C23.7936 14.1201 23.7948 14.12 23.796 14.1199C23.7964 14.1198 23.7976 14.1197 23.7985 14.1197C23.8001 14.1195 23.8019 14.1194 23.8036 14.1192C23.8072 14.1189 23.811 14.1186 23.8149 14.1183C23.8228 14.1176 23.8315 14.1167 23.841 14.1158C23.8599 14.114 23.8819 14.1118 23.9068 14.109C23.9566 14.1034 24.0184 14.0957 24.0904 14.0851C24.2335 14.0642 24.4224 14.0311 24.6415 13.9795C25.0634 13.8801 25.6782 13.6931 26.3099 13.3336C26.9463 12.9715 27.6992 12.3759 28.2162 11.4275C28.7536 10.4418 28.9063 9.31165 28.7045 8.14112L23.3499 9.06434ZM20.9194 11.9969L21.6883 15.4866L26.9946 14.3174L26.2257 10.8277L20.9194 11.9969Z" fill="#3E197C" mask="url(#path-3-outside-1_30_18)"/>
<path d="M15.3049 22.3765H21.2393C21.342 22.3765 21.4403 22.4194 21.5066 22.4977C21.8261 22.8748 22.6931 24.1381 22.2969 26.3831C22.2276 26.7757 21.8574 27.0404 21.4653 26.9682C20.1537 26.7264 17.1922 26.293 15.1412 26.845C14.7239 26.9573 14.3086 26.6737 14.257 26.2447C14.143 25.297 14.1379 23.7435 15.0156 22.5209C15.0817 22.4289 15.1917 22.3765 15.3049 22.3765V22.3765Z" fill="#3E197C"/>
<path d="M15.8274 23.9903C15.8274 23.9903 15.5683 25.0677 17.0175 25.0945" stroke="white" stroke-width="0.905605" stroke-miterlimit="10" stroke-linecap="round" stroke-linejoin="round"/>
<path d="M15.5484 28.2126C15.5484 28.2126 17.9439 31.1996 20.7534 28.3309" stroke="#3E197C" stroke-width="2.71681" stroke-miterlimit="10" stroke-linecap="round" stroke-linejoin="round"/>
<path d="M11.1674 12.6236C10.0111 11.8849 8.38285 10.8925 6.47488 11.3622C6.47488 11.3622 5.91297 16.656 12.2714 17.2179L12.7293 17.5504C12.7293 17.5504 11.8649 20.9155 13.2054 23.6264" stroke="#3E197C" stroke-width="2.71681" stroke-miterlimit="10" stroke-linecap="round" stroke-linejoin="round"/>
<path d="M21.8726 16.7214C21.8726 16.7214 23.0226 16.6388 23.3173 16.3441C23.612 16.0494 23.612 15.5715 23.3173 15.2768C23.0226 14.9821 22.5447 14.9821 22.25 15.2768C21.9553 15.5715 21.8726 16.7214 21.8726 16.7214Z" fill="#3E197C"/>
<path d="M20.8517 23.9742C20.8517 23.9742 21.1108 25.0515 19.6616 25.0783" stroke="white" stroke-width="0.905605" stroke-miterlimit="10" stroke-linecap="round" stroke-linejoin="round"/>
<path d="M25.2262 12.5497C26.3761 11.8372 27.9689 10.8887 29.8269 11.3461C29.8269 11.3461 30.3888 16.6399 24.0303 17.2018L23.5725 17.5342C23.5725 17.5342 24.5303 20.5444 23.1898 23.2554" stroke="#3E197C" stroke-width="2.71681" stroke-miterlimit="10" stroke-linecap="round" stroke-linejoin="round"/>
</svg>
