<svg width="36" height="35" viewBox="0 0 36 35" fill="none" xmlns="http://www.w3.org/2000/svg">
<rect x="1.51181" y="0.905605" width="33.07" height="33.07" rx="16.535" fill="#FFA915" stroke="#3E197C" stroke-width="1.81121"/>
<path d="M25.4822 15.2038V23.8339C25.4822 24.4092 25.2786 24.9004 24.8716 25.3075C24.4645 25.7146 23.9733 25.9181 23.3979 25.9181H12.9767C12.4013 25.9181 11.9101 25.7146 11.503 25.3075C11.096 24.9004 10.8924 24.4092 10.8924 23.8339V15.2038C10.5776 15.0192 10.3252 14.7695 10.1352 14.4547C9.94527 14.1399 9.85029 13.7926 9.85029 13.4126C9.85029 12.6527 10.2221 11.9553 10.9657 11.3202C11.7093 10.6852 12.7216 10.1804 14.0025 9.80588C15.2835 9.43137 16.6784 9.24411 18.1873 9.24411C19.6962 9.24411 21.0911 9.43137 22.3721 9.80588C23.653 10.1804 24.6653 10.6852 25.4089 11.3202C26.1525 11.9553 26.5243 12.6527 26.5243 13.4126C26.5243 13.7926 26.4293 14.1399 26.2393 14.4547C26.0494 14.7695 25.797 15.0192 25.4822 15.2038Z" fill="#3E197C"/>
<path d="M17.905 17.784C17.9317 17.6576 18.007 17.5313 18.097 17.4471C18.1406 17.4063 18.1771 17.3854 18.1984 17.3769L18.2024 17.3754C18.4437 17.4144 18.6754 17.2573 18.7264 17.0156C18.779 16.7666 18.6198 16.5222 18.3708 16.4696C18.0004 16.3915 17.6711 16.5836 17.4675 16.7741C17.2494 16.9782 17.0718 17.2694 17.0033 17.5937C16.9507 17.8427 17.11 18.0871 17.359 18.1397C17.6079 18.1923 17.8524 18.033 17.905 17.784V17.784Z" fill="#FFA915"/>
<path d="M14.0607 15.5815C12.4137 16.8934 12.3712 19.1164 13.143 20.614C13.6617 21.6205 14.6592 22.5162 16.1554 22.5162C16.5267 22.5162 16.7944 22.5061 17.0052 22.4981C17.644 22.4737 17.76 22.4694 18.6492 22.8283C19.8318 23.3056 21.0895 23.164 22.1404 22.5012C23.0862 21.9048 23.6289 20.5199 23.537 19.3961C23.4881 18.8004 23.5415 18.5575 23.6025 18.2801C23.6565 18.0343 23.7165 17.7615 23.7165 17.1919C23.7165 15.9797 23.3574 15.207 22.9982 14.575C22.6392 13.943 22.249 13.3168 21.1429 12.6123C20.2345 12.0337 18.5138 11.7564 17.1529 12.5117C16.1554 13.0652 15.6567 13.5685 15.0582 14.575C14.8316 14.956 14.6143 15.1405 14.0607 15.5815V15.5815ZM21.5048 17.8576C21.5048 19.537 20.1433 20.8986 18.4638 20.8986C16.7843 20.8986 15.4228 19.537 15.4228 17.8576C15.4228 16.1781 16.7843 14.8166 18.4638 14.8166C20.1433 14.8166 21.5048 16.1781 21.5048 17.8576V17.8576Z" fill="#FFA915"/>
</svg>
