<svg width="36" height="35" viewBox="0 0 36 35" fill="none" xmlns="http://www.w3.org/2000/svg">
<rect x="1.54922" y="0.905605" width="33.07" height="33.07" rx="16.535" stroke="#3E197C" stroke-width="1.81121"/>
<path d="M21.4043 11.082C21.4043 11.082 23.0329 8.38318 22.2884 8.01093C21.5439 7.63868 20.4271 8.38318 20.4271 8.38318C20.4271 8.38318 21.1716 5.77744 19.6826 5.77744C18.1937 5.77744 17.8214 7.26644 17.8214 7.26644C17.8214 7.26644 17.279 4.17827 15.2157 5.03295C13.9262 5.56712 13.3544 6.89419 15.2157 10.6167" fill="#3E197C"/>
<path d="M15.2067 18.5717C15.7847 18.5717 16.2532 18.1032 16.2532 17.5253C16.2532 16.9473 15.7847 16.4788 15.2067 16.4788C14.6288 16.4788 14.1603 16.9473 14.1603 17.5253C14.1603 18.1032 14.6288 18.5717 15.2067 18.5717Z" fill="#3E197C"/>
<path d="M21.9072 18.5717C22.4852 18.5717 22.9537 18.1032 22.9537 17.5253C22.9537 16.9473 22.4852 16.4788 21.9072 16.4788C21.3293 16.4788 20.8608 16.9473 20.8608 17.5253C20.8608 18.1032 21.3293 18.5717 21.9072 18.5717Z" fill="#3E197C"/>
<path d="M18.2625 18.7123C18.2625 18.7123 24.963 18.34 18.2625 25.4127C18.2625 25.4127 11.5621 18.7123 18.2625 18.7123Z" fill="#3E197C"/>
<path d="M18.2551 26.5295C18.3003 27.8872 18.301 27.8872 18.3017 27.8871L18.3034 27.8871L18.3074 27.8869L18.3187 27.8865L18.3531 27.885C18.3813 27.8836 18.4199 27.8815 18.468 27.8783C18.564 27.872 18.6984 27.8615 18.8641 27.8444C19.1947 27.8101 19.6547 27.7486 20.1869 27.639C21.2327 27.4235 22.6439 27.0044 23.8943 26.1708C25.1717 25.3192 26.3199 24.0027 26.6602 22.0517C26.9902 20.1594 26.5208 17.889 25.0751 15.1658C25.059 15.1258 25.0382 15.0756 25.0124 15.0165C24.9514 14.8763 24.8623 14.6845 24.7422 14.4581C24.5037 14.0083 24.1349 13.4063 23.6105 12.7991C22.5564 11.5786 20.8144 10.2812 18.2551 10.2812C15.6957 10.2812 13.9537 11.5786 12.8996 12.7991C12.3753 13.4063 12.0064 14.0083 11.7679 14.4581C11.6479 14.6845 11.5587 14.8763 11.4977 15.0165C11.472 15.0756 11.4511 15.1258 11.435 15.1658C9.98932 17.889 9.51992 20.1594 9.84997 22.0517C10.1903 24.0027 11.3384 25.3192 12.6158 26.1708C13.8662 27.0044 15.2774 27.4235 16.3232 27.639C16.8554 27.7486 17.3155 27.8101 17.646 27.8444C17.8117 27.8615 17.9461 27.872 18.0422 27.8783C18.0902 27.8815 18.1288 27.8836 18.157 27.885L18.1915 27.8865L18.2027 27.8869L18.2068 27.8871L18.2084 27.8871C18.2091 27.8872 18.2098 27.8872 18.2551 26.5295ZM18.2551 26.5295L18.2098 27.8872C18.24 27.8882 18.2702 27.8882 18.3003 27.8872L18.2551 26.5295Z" stroke="#3E197C" stroke-width="2.71681" stroke-miterlimit="10" stroke-linecap="round" stroke-linejoin="round"/>
</svg>
