<svg width="36" height="35" viewBox="0 0 36 35" fill="none" xmlns="http://www.w3.org/2000/svg">
<rect x="1.54922" y="0.905605" width="33.07" height="33.07" rx="16.535" fill="#FFA915" stroke="#3E197C" stroke-width="1.81121"/>
<path d="M21.4043 11.0819C21.4043 11.0819 23.0329 8.38315 22.2884 8.0109C21.5439 7.63865 20.4271 8.38315 20.4271 8.38315C20.4271 8.38315 21.1716 5.77741 19.6827 5.77741C18.1937 5.77741 17.8214 7.26641 17.8214 7.26641C17.8214 7.26641 17.279 4.17824 15.2157 5.03292C13.9262 5.56709 13.3544 6.89416 15.2157 10.6166" fill="#3E197C"/>
<path d="M15.2068 18.5717C15.7847 18.5717 16.2532 18.1032 16.2532 17.5252C16.2532 16.9473 15.7847 16.4788 15.2068 16.4788C14.6288 16.4788 14.1603 16.9473 14.1603 17.5252C14.1603 18.1032 14.6288 18.5717 15.2068 18.5717Z" fill="#3E197C"/>
<path d="M21.9073 18.5717C22.4852 18.5717 22.9537 18.1032 22.9537 17.5252C22.9537 16.9473 22.4852 16.4788 21.9073 16.4788C21.3293 16.4788 20.8608 16.9473 20.8608 17.5252C20.8608 18.1032 21.3293 18.5717 21.9073 18.5717Z" fill="#3E197C"/>
<path d="M18.2625 18.7122C18.2625 18.7122 24.963 18.34 18.2625 25.4127C18.2625 25.4127 11.5621 18.7122 18.2625 18.7122Z" fill="#3E197C"/>
<path d="M18.2551 26.5295C18.3003 27.8872 18.301 27.8872 18.3017 27.8871L18.3034 27.8871L18.3074 27.8869L18.3187 27.8865L18.3531 27.8849C18.3813 27.8836 18.4199 27.8815 18.468 27.8783C18.564 27.872 18.6984 27.8615 18.8641 27.8443C19.1947 27.8101 19.6548 27.7486 20.1869 27.639C21.2328 27.4235 22.6439 27.0044 23.8943 26.1708C25.1718 25.3192 26.3199 24.0027 26.6602 22.0517C26.9902 20.1594 26.5208 17.8889 25.0751 15.1658C25.059 15.1258 25.0382 15.0756 25.0124 15.0165C24.9515 14.8763 24.8623 14.6845 24.7423 14.4581C24.5037 14.0083 24.1349 13.4062 23.6105 12.7991C22.5564 11.5785 20.8145 10.2812 18.2551 10.2812C15.6957 10.2812 13.9537 11.5785 12.8996 12.7991C12.3753 13.4062 12.0064 14.0083 11.7679 14.4581C11.6479 14.6845 11.5587 14.8763 11.4977 15.0165C11.472 15.0756 11.4512 15.1258 11.4351 15.1658C9.98933 17.8889 9.51993 20.1594 9.84999 22.0517C10.1903 24.0027 11.3384 25.3192 12.6158 26.1708C13.8662 27.0044 15.2774 27.4235 16.3233 27.639C16.8554 27.7486 17.3155 27.8101 17.646 27.8443C17.8117 27.8615 17.9461 27.872 18.0422 27.8783C18.0903 27.8815 18.1288 27.8836 18.157 27.8849L18.1915 27.8865L18.2027 27.8869L18.2068 27.8871L18.2084 27.8871C18.2092 27.8872 18.2098 27.8872 18.2551 26.5295ZM18.2551 26.5295L18.2098 27.8872C18.24 27.8882 18.2702 27.8882 18.3003 27.8872L18.2551 26.5295Z" stroke="#3E197C" stroke-width="2.71681" stroke-miterlimit="10" stroke-linecap="round" stroke-linejoin="round"/>
</svg>
