<svg width="35" height="34" viewBox="0 0 35 34" fill="none" xmlns="http://www.w3.org/2000/svg">
<rect x="1.84161" y="0.905605" width="31.6568" height="31.6568" rx="15.8284" stroke="#3E197C" stroke-width="1.81121"/>
<path d="M25.5595 8.59145C25.5008 8.8004 25.3702 8.95711 25.1678 9.06158C24.9653 9.16606 24.7531 9.19218 24.5311 9.13994L21.6516 8.29762L21.1031 10.4132H21.201C21.3708 10.4132 21.5177 10.4752 21.6418 10.5993C21.7658 10.7234 21.8279 10.8703 21.8279 11.0401V25.4574C21.8279 25.81 21.7038 26.1071 21.4557 26.3487C21.2075 26.5903 20.9137 26.7111 20.5742 26.7111H15.5594C15.2068 26.7111 14.9097 26.587 14.6682 26.3389C14.4266 26.0908 14.3058 25.797 14.3058 25.4574V14.1743C13.261 14.1743 12.373 13.8086 11.6417 13.0773C10.9104 12.346 10.5447 11.4579 10.5447 10.4132C10.5447 9.36848 10.9104 8.48045 11.6417 7.74913C12.373 7.01782 13.261 6.65216 14.3058 6.65216C15.3505 6.65216 16.2385 7.01782 16.9698 7.74913C17.7012 8.48045 18.0668 9.36848 18.0668 10.4132H19.4968L20.3195 7.279C20.3718 7.12229 20.4436 7.00149 20.535 6.91661C20.6264 6.83172 20.7439 6.77296 20.8876 6.74031C21.0312 6.70766 21.1423 6.68807 21.2206 6.68154C21.299 6.67501 21.4361 6.67175 21.632 6.67175L24.9621 7.65119C25.1971 7.70343 25.3702 7.82096 25.4812 8.00379C25.5922 8.18662 25.6183 8.38251 25.5595 8.59145ZM15.5594 12.568C15.9382 12.346 16.2385 12.0456 16.4605 11.6669H15.5594V12.568ZM14.3058 7.90584C13.6136 7.90584 13.0227 8.1507 12.533 8.64042C12.0433 9.13014 11.7984 9.72107 11.7984 10.4132C11.7984 11.1053 12.0433 11.6963 12.533 12.186C13.0227 12.6757 13.6136 12.9206 14.3058 12.9206V11.0401C14.3058 10.8703 14.3678 10.7234 14.4919 10.5993C14.6159 10.4752 14.7628 10.4132 14.9326 10.4132H16.8131C16.8131 9.72107 16.5683 9.13014 16.0785 8.64042C15.5888 8.1507 14.9979 7.90584 14.3058 7.90584ZM17.8317 11.6669C17.6489 12.2023 17.3583 12.6692 16.96 13.0675C16.5617 13.4658 16.0949 13.7564 15.5594 13.9392V15.4279H18.1648L19.1638 11.6669H17.8317ZM20.5742 12.4113L19.771 15.4279H20.5742V12.4113Z" fill="#3E197C"/>
</svg>
