<svg width="35" height="34" viewBox="0 0 35 34" fill="none" xmlns="http://www.w3.org/2000/svg">
<rect x="1.7698" y="0.905605" width="31.6568" height="31.6568" rx="15.8284" stroke="#3E197C" stroke-width="1.81121"/>
<path d="M13.4842 11.5966V9.01884C13.4842 8.84792 13.5521 8.684 13.673 8.56314C13.7938 8.44229 13.9578 8.37439 14.1287 8.37439C14.2996 8.37439 14.4635 8.44229 14.5844 8.56314C14.7052 8.684 14.7731 8.84792 14.7731 9.01884V11.5966C14.7731 11.7675 14.7052 11.9315 14.5844 12.0523C14.4635 12.1732 14.2996 12.2411 14.1287 12.2411C13.9578 12.2411 13.7938 12.1732 13.673 12.0523C13.5521 11.9315 13.4842 11.7675 13.4842 11.5966ZM16.7065 12.2411C16.7911 12.2411 16.8749 12.2244 16.9531 12.192C17.0313 12.1596 17.1023 12.1122 17.1622 12.0523C17.222 11.9925 17.2695 11.9214 17.3019 11.8432C17.3343 11.7651 17.3509 11.6813 17.3509 11.5966V9.01884C17.3509 8.84792 17.283 8.684 17.1622 8.56314C17.0413 8.44229 16.8774 8.37439 16.7065 8.37439C16.5356 8.37439 16.3716 8.44229 16.2508 8.56314C16.1299 8.684 16.062 8.84792 16.062 9.01884V11.5966C16.062 11.6813 16.0787 11.7651 16.1111 11.8432C16.1435 11.9214 16.1909 11.9925 16.2508 12.0523C16.3106 12.1122 16.3817 12.1596 16.4598 12.192C16.538 12.2244 16.6218 12.2411 16.7065 12.2411ZM19.2843 12.2411C19.3689 12.2411 19.4527 12.2244 19.5309 12.192C19.6091 12.1596 19.6801 12.1122 19.74 12.0523C19.7998 11.9925 19.8473 11.9214 19.8796 11.8432C19.912 11.7651 19.9287 11.6813 19.9287 11.5966V9.01884C19.9287 8.84792 19.8608 8.684 19.7399 8.56314C19.6191 8.44229 19.4552 8.37439 19.2843 8.37439C19.1133 8.37439 18.9494 8.44229 18.8286 8.56314C18.7077 8.684 18.6398 8.84792 18.6398 9.01884V11.5966C18.6398 11.6813 18.6565 11.7651 18.6889 11.8432C18.7212 11.9214 18.7687 11.9925 18.8286 12.0523C18.8884 12.1122 18.9594 12.1596 19.0376 12.192C19.1158 12.2244 19.1996 12.2411 19.2843 12.2411ZM27.0176 16.7522V17.3966C27.0166 18.2161 26.7037 19.0045 26.1425 19.6016C25.5814 20.1988 24.814 20.56 23.9961 20.612C23.5556 21.8554 22.8064 22.9666 21.8189 23.8411H23.7954C23.9663 23.8411 24.1302 23.909 24.2511 24.0299C24.3719 24.1507 24.4398 24.3146 24.4398 24.4855C24.4398 24.6565 24.3719 24.8204 24.2511 24.9412C24.1302 25.0621 23.9663 25.13 23.7954 25.13H19.6726C19.6696 25.13 19.6665 25.1305 19.6635 25.1305C19.6612 25.1305 19.659 25.13 19.6567 25.13H13.7387C13.735 25.1299 13.7314 25.1301 13.7278 25.13H9.61756C9.44664 25.13 9.28273 25.0621 9.16187 24.9412C9.04101 24.8204 8.97311 24.6565 8.97311 24.4855C8.97311 24.3146 9.04101 24.1507 9.16187 24.0299C9.28273 23.909 9.44664 23.8411 9.61756 23.8411H11.5941C10.772 23.1146 10.1133 22.222 9.66152 21.2222C9.20973 20.2224 8.9751 19.1382 8.97311 18.0411V14.1744C8.97311 14.0898 8.98978 14.006 9.02216 13.9278C9.05455 13.8496 9.10202 13.7786 9.16186 13.7187C9.22171 13.6589 9.29275 13.6114 9.37094 13.579C9.44913 13.5466 9.53293 13.53 9.61756 13.53H23.7954C24.6497 13.5309 25.4687 13.8707 26.0728 14.4748C26.6769 15.0789 27.0166 15.8979 27.0176 16.7522ZM23.1509 14.8189H10.262V18.0411C10.2644 19.251 10.6063 20.436 11.2487 21.4614C11.8912 22.4867 12.8084 23.3112 13.8961 23.8411H19.5168C20.3297 23.4449 21.0505 22.8828 21.6327 22.1909C22.2149 21.499 22.6457 20.6928 22.8971 19.8242C22.9012 19.8069 22.9058 19.7897 22.9113 19.773C23.07 19.2094 23.1506 18.6266 23.1509 18.0411V14.8189ZM25.7287 16.7522C25.7282 16.3525 25.6041 15.9628 25.3733 15.6365C25.1425 15.3102 24.8165 15.0633 24.4398 14.9297V18.0411C24.4395 18.4462 24.4071 18.8506 24.3429 19.2505C24.7427 19.1319 25.0936 18.8874 25.3433 18.5534C25.593 18.2194 25.7281 17.8137 25.7287 17.3966V16.7522Z" fill="#3E197C" stroke="#3E197C"/>
</svg>
