<svg width="36" height="35" viewBox="0 0 36 35" fill="none" xmlns="http://www.w3.org/2000/svg">
<rect x="1.59018" y="0.905605" width="33.07" height="33.07" rx="16.535" stroke="#3E197C" stroke-width="1.81121"/>
<path d="M27.8098 13.8783V23.604C27.8098 23.9508 27.5288 24.2314 27.1823 24.2314H8.98589C8.63938 24.2314 8.35843 23.9508 8.35843 23.604V13.8783C8.35843 13.5321 8.63938 13.2508 8.98589 13.2508L19.6515 11.5446" stroke="#3E197C" stroke-width="2.71681" stroke-miterlimit="10" stroke-linecap="round" stroke-linejoin="round"/>
<path d="M24.992 10.7571C26.5745 10.9172 27.8098 12.2539 27.8098 13.8783" stroke="#3E197C" stroke-width="2.71681" stroke-miterlimit="10" stroke-linecap="round" stroke-linejoin="round"/>
<path d="M8.35845 13.6037L8.67218 17.6431C9.53861 17.6431 10.2408 16.9409 10.2408 16.0747C10.2408 15.2083 10.9431 14.5058 11.8095 14.5058C12.6759 14.5058 13.3781 15.2083 13.3781 16.0747C13.3781 16.9409 14.0804 17.6431 14.9468 17.6431C15.8132 17.6431 16.5155 16.9409 16.5155 16.0747C16.5155 15.2083 17.2177 14.5058 18.0841 14.5058C18.9506 14.5058 19.6528 15.2083 19.6528 16.0747C19.6528 16.9409 20.355 17.6431 21.2214 17.6431C22.0879 17.6431 22.7901 16.9409 22.7901 16.0747C22.7901 15.2083 23.4923 14.5058 24.3587 14.5058C25.2252 14.5058 25.9274 15.2083 25.9274 16.0747C25.9274 16.9409 26.6296 17.6431 27.4961 17.6431L27.1943 11.162" fill="#3E197C"/>
<path d="M8.35843 20.7103H27.8098" stroke="#3E197C" stroke-width="2.71681" stroke-miterlimit="10" stroke-linecap="round" stroke-linejoin="round"/>
<path d="M22.3194 13.6682C23.936 13.6682 25.2465 12.3577 25.2465 10.7412C25.2465 9.1246 23.936 7.81411 22.3194 7.81411C20.7029 7.81411 19.3924 9.1246 19.3924 10.7412C19.3924 12.3577 20.7029 13.6682 22.3194 13.6682Z" fill="white" stroke="#3E197C" stroke-width="2.71681" stroke-miterlimit="10" stroke-linecap="round" stroke-linejoin="round"/>
<path d="M22.3194 10.1135C22.3194 8.38083 23.7239 6.97623 25.4567 6.97623" stroke="#3E197C" stroke-width="1.81121" stroke-miterlimit="10" stroke-linecap="round" stroke-linejoin="round"/>
</svg>
