<svg width="35" height="35" viewBox="0 0 35 35" fill="none" xmlns="http://www.w3.org/2000/svg">
<rect x="0.905605" y="0.905605" width="33.07" height="33.07" rx="16.535" fill="#FFA915" stroke="#3E197C" stroke-width="1.81121"/>
<path d="M29.0943 11.6936C29.0943 11.2038 28.6972 10.8067 28.2075 10.8067H22.4944C22.1287 10.2199 21.7032 9.75471 21.1232 9.30313C21.1912 8.40891 21.4751 7.74934 21.9704 7.33984C22.9464 6.53307 24.5118 6.82129 24.5237 6.82363C25.0045 6.9197 25.4713 6.60878 25.5677 6.12867C25.6641 5.64841 25.3529 5.18103 24.8728 5.08465C24.776 5.06532 22.4858 4.62481 20.8532 5.9623C20.146 6.54164 19.6842 7.34062 19.4707 8.34542C17.9589 7.74258 16.2229 7.70725 14.6239 8.34573C14.4104 7.34083 13.9487 6.54175 13.2413 5.96235C11.6086 4.62486 9.3184 5.06527 9.2217 5.08465C8.74149 5.18109 8.42854 5.64888 8.52487 6.12903C8.62126 6.60924 9.08676 6.921 9.56702 6.82435C9.58282 6.8215 11.148 6.53307 12.1241 7.3399C12.62 7.74986 12.9039 8.41042 12.9715 9.30614C12.4417 9.72883 11.9774 10.2342 11.5986 10.8067H5.88684C5.39707 10.8067 5 11.2038 5 11.6936C5 14.1743 7.25587 16.0764 9.71849 15.6188C9.52941 16.1664 8.78467 18.3244 7.61595 21.7094C7.45607 22.1724 7.70179 22.6772 8.1648 22.837C8.62786 22.9969 9.1327 22.7511 9.29247 22.2882L9.7932 20.8381L12.9653 28.8312C13.6322 30.5121 15.2303 31.599 17.0382 31.6027C17.0412 31.6027 17.0442 31.6031 17.0473 31.6031C17.0503 31.6031 17.0533 31.6027 17.0563 31.6027C18.8638 31.599 20.4619 30.5121 21.1291 28.8313L24.3012 20.8382L24.8018 22.2882C24.9617 22.7513 25.4666 22.9968 25.9295 22.837C26.3925 22.6772 26.6381 22.1723 26.4783 21.7094C25.0546 17.5861 24.9693 17.3478 24.3917 15.6218C26.8561 16.0694 29.0943 14.1611 29.0943 11.6936ZM6.95845 12.5804H10.766C10.6898 12.8007 10.6115 13.0311 10.5167 13.3068C9.40377 14.3581 7.57708 13.9948 6.95845 12.5804ZM19.4806 28.177C19.1962 28.8932 18.6283 29.4284 17.934 29.6763V25.3293L19.0871 23.9979C19.5829 23.4254 19.1761 22.5305 18.4168 22.5305H15.6778C14.9207 22.5305 14.5102 23.4237 15.0074 23.9979L16.1605 25.3293V29.6764C15.4661 29.4285 14.8982 28.8933 14.6139 28.1771L10.6809 18.2662C12.3927 13.3086 12.1429 14.0329 12.3163 13.5272C14.067 8.41478 19.9598 8.21733 21.7777 13.526C22.0216 14.238 23.3284 18.017 23.4138 18.2659L19.4806 28.177ZM23.6172 13.3425C23.5208 13.071 23.4278 12.8178 23.3363 12.5804H27.1358C26.5291 13.9677 24.7446 14.357 23.6172 13.3425Z" fill="#3E197C"/>
<path d="M19.4901 20.0967C20.138 20.0967 20.6632 19.5715 20.6632 18.9236C20.6632 18.2757 20.138 17.7504 19.4901 17.7504C18.8422 17.7504 18.3169 18.2757 18.3169 18.9236C18.3169 19.5715 18.8422 20.0967 19.4901 20.0967Z" fill="#3E197C"/>
<path d="M14.64 20.0967C15.2879 20.0967 15.8131 19.5715 15.8131 18.9236C15.8131 18.2757 15.2879 17.7504 14.64 17.7504C13.9921 17.7504 13.4668 18.2757 13.4668 18.9236C13.4668 19.5715 13.9921 20.0967 14.64 20.0967Z" fill="#3E197C"/>
</svg>
