<svg width="35" height="35" viewBox="0 0 35 35" fill="none" xmlns="http://www.w3.org/2000/svg">
<rect x="0.905605" y="0.905605" width="33.07" height="33.07" rx="16.535" stroke="#3E197C" stroke-width="1.81121"/>
<path d="M29 11.3896C29 10.922 28.621 10.543 28.1534 10.543H22.6999C22.3507 9.98283 21.9446 9.53876 21.3909 9.10769C21.4559 8.25408 21.7268 7.62447 22.1996 7.23357C23.1313 6.46344 24.6256 6.73857 24.637 6.7408C25.0959 6.83251 25.5416 6.53571 25.6336 6.07741C25.7256 5.61896 25.4285 5.17281 24.9702 5.08081C24.8778 5.06235 22.6916 4.64185 21.1332 5.91859C20.4581 6.47163 20.0173 7.23432 19.8135 8.19347C18.3704 7.61802 16.7132 7.58429 15.1868 8.19377C14.983 7.23452 14.5422 6.47173 13.867 5.91864C12.3085 4.6419 10.1223 5.0623 10.03 5.08081C9.57156 5.17286 9.27283 5.61941 9.36478 6.07776C9.45679 6.53616 9.90115 6.83375 10.3596 6.7415C10.3747 6.73877 11.8688 6.46344 12.8005 7.23362C13.2739 7.62496 13.5449 8.25552 13.6095 9.11057C13.1037 9.51406 12.6605 9.99647 12.2989 10.543H6.84656C6.37904 10.543 6 10.922 6 11.3896C6 13.7576 8.15341 15.5733 10.5042 15.1365C10.3237 15.6593 9.61278 17.7193 8.49714 20.9505C8.34452 21.3925 8.57908 21.8744 9.02106 22.0269C9.46309 22.1795 9.945 21.9449 10.0975 21.503L10.5755 20.1188L13.6035 27.7489C14.2402 29.3534 15.7657 30.3909 17.4914 30.3944C17.4943 30.3945 17.4972 30.3949 17.5001 30.3949C17.503 30.3949 17.5059 30.3945 17.5088 30.3944C19.2341 30.3909 20.7597 29.3534 21.3966 27.7489L24.4245 20.1189L24.9024 21.503C25.0551 21.9451 25.537 22.1795 25.9789 22.0269C26.4209 21.8743 26.6554 21.3924 26.5028 20.9505C25.1438 17.0145 25.0623 16.787 24.5109 15.1393C26.8635 15.5666 29 13.7451 29 11.3896ZM7.86951 12.2361H11.5042C11.4314 12.4464 11.3567 12.6663 11.2661 12.9295C10.2038 13.933 8.46004 13.5862 7.86951 12.2361ZM19.8229 27.1244C19.5515 27.8081 19.0094 28.3189 18.3466 28.5556V24.406L19.4473 23.1351C19.9206 22.5885 19.5322 21.7343 18.8074 21.7343H16.1928C15.4701 21.7343 15.0783 22.587 15.5529 23.1351L16.6536 24.406V28.5556C15.9907 28.319 15.4486 27.8082 15.1773 27.1244L11.4229 17.6637C13.0569 12.9312 12.8185 13.6226 12.984 13.1399C14.6552 8.25969 20.2804 8.07121 22.0157 13.1388C22.2486 13.8185 23.4959 17.4258 23.5775 17.6634L19.8229 27.1244ZM23.7717 12.9636C23.6796 12.7044 23.5908 12.4627 23.5035 12.2361H27.1304C26.5513 13.5604 24.8478 13.932 23.7717 12.9636Z" fill="#3E197C"/>
<path d="M19.832 18.4911C20.4505 18.4911 20.9518 17.9897 20.9518 17.3712C20.9518 16.7527 20.4505 16.2513 19.832 16.2513C19.2135 16.2513 18.7121 16.7527 18.7121 17.3712C18.7121 17.9897 19.2135 18.4911 19.832 18.4911Z" fill="#3E197C"/>
<path d="M15.2021 18.4911C15.8206 18.4911 16.322 17.9897 16.322 17.3712C16.322 16.7527 15.8206 16.2513 15.2021 16.2513C14.5837 16.2513 14.0823 16.7527 14.0823 17.3712C14.0823 17.9897 14.5837 18.4911 15.2021 18.4911Z" fill="#3E197C"/>
</svg>
