<svg width="35" height="34" viewBox="0 0 35 34" fill="none" xmlns="http://www.w3.org/2000/svg">
<rect x="1.87361" y="0.905605" width="31.6568" height="31.6568" rx="15.8284" stroke="#3E197C" stroke-width="1.81121"/>
<path d="M13.4572 7.39136C13.091 7.39136 12.7941 7.68826 12.7941 8.0545V14.6859C12.7941 17.3917 14.8197 19.6243 17.4373 19.9501C17.4365 19.9637 17.436 19.9772 17.436 19.991V24.633H15.4466C15.0804 24.633 14.7835 24.9299 14.7835 25.2961C14.7835 25.6623 15.0804 25.9592 15.4466 25.9592H20.7517C21.1179 25.9592 21.4149 25.6623 21.4149 25.2961C21.4149 24.9299 21.1179 24.633 20.7517 24.633H18.7623V19.991C18.7623 19.9772 18.7619 19.9637 18.7611 19.9501C21.3787 19.6243 23.4043 17.3917 23.4043 14.6859V8.0545C23.4043 7.68826 23.1073 7.39136 22.7412 7.39136H13.4572ZM14.1204 11.3702V8.71763H22.078V11.3702H14.1204ZM21.7242 14.4248C21.6393 15.1904 21.3142 15.9094 20.7955 16.4788C20.2769 17.0482 19.5912 17.4388 18.8369 17.5946C18.4783 17.6687 18.1275 17.438 18.0534 17.0793C17.9793 16.7206 18.21 16.3698 18.5687 16.2957C19.0487 16.1966 19.485 15.948 19.815 15.5857C20.1451 15.2233 20.352 14.7658 20.406 14.2786C20.4464 13.9146 20.7743 13.6522 21.1382 13.6926C21.5023 13.733 21.7646 14.0608 21.7242 14.4248V14.4248Z" fill="#3E197C"/>
</svg>
