<svg width="35" height="34" viewBox="0 0 35 34" fill="none" xmlns="http://www.w3.org/2000/svg">
<rect x="1.87361" y="0.905605" width="31.6568" height="31.6568" rx="15.8284" fill="#FFA915" stroke="#3E197C" stroke-width="1.81121"/>
<path d="M13.4572 7.39133C13.091 7.39133 12.7941 7.68823 12.7941 8.05447V14.6859C12.7941 17.3916 14.8197 19.6242 17.4373 19.9501C17.4365 19.9636 17.436 19.9772 17.436 19.991V24.6329H15.4466C15.0804 24.6329 14.7835 24.9299 14.7835 25.2961C14.7835 25.6623 15.0804 25.9592 15.4466 25.9592H20.7517C21.1179 25.9592 21.4149 25.6623 21.4149 25.2961C21.4149 24.9299 21.1179 24.6329 20.7517 24.6329H18.7623V19.991C18.7623 19.9772 18.7619 19.9636 18.7611 19.9501C21.3787 19.6242 23.4043 17.3916 23.4043 14.6859V8.05447C23.4043 7.68823 23.1073 7.39133 22.7411 7.39133H13.4572ZM14.1203 11.3702V8.7176H22.078V11.3702H14.1203ZM21.7242 14.4248C21.6393 15.1903 21.3142 15.9093 20.7955 16.4787C20.2769 17.0481 19.5912 17.4388 18.8369 17.5945C18.4783 17.6686 18.1275 17.4379 18.0534 17.0793C17.9793 16.7206 18.21 16.3698 18.5687 16.2957C19.0487 16.1965 19.485 15.948 19.815 15.5856C20.1451 15.2233 20.352 14.7657 20.406 14.2786C20.4464 13.9146 20.7743 13.6522 21.1382 13.6926C21.5023 13.733 21.7646 14.0608 21.7242 14.4248V14.4248Z" fill="#3E197C"/>
</svg>
