<svg width="35" height="34" viewBox="0 0 35 34" fill="none" xmlns="http://www.w3.org/2000/svg">
<rect x="1.73413" y="0.905605" width="31.6568" height="31.6568" rx="15.8284" fill="#FFA915" stroke="#3E197C" stroke-width="1.81121"/>
<path d="M16.9126 8.86957C16.0717 8.86957 15.3547 9.26236 14.8037 9.81859C14.5032 9.7026 14.2185 9.54443 13.8758 9.54443C12.3916 9.54443 11.1764 10.7597 11.1764 12.2439C11.1764 12.9372 11.4584 13.5567 11.8934 14.0365C11.867 14.1103 11.8512 14.1893 11.8512 14.2684V23.0416C11.8512 24.1514 12.766 25.0662 13.8758 25.0662H21.9741C23.0839 25.0662 23.9987 24.1514 23.9987 23.0416V21.6919H24.6735C25.7833 21.6919 26.6981 20.7771 26.6981 19.6673V16.9679C26.6981 15.858 25.7833 14.9433 24.6735 14.9433H23.9987V14.1419C24.0039 14.0918 24.0039 14.0444 23.9987 13.9943C24.4099 13.5198 24.6735 12.9161 24.6735 12.2439C24.6735 10.7597 23.4582 9.54443 21.9741 9.54443C21.4706 9.54443 21.0251 9.72369 20.6244 9.96621C20.2237 9.72369 19.7782 9.54443 19.2747 9.54443C19.1007 9.54443 18.9636 9.59715 18.8107 9.62878C18.2861 9.18854 17.6508 8.86957 16.9126 8.86957ZM15.352 14.4371C15.8134 14.7245 16.3301 14.9433 16.9126 14.9433C16.9838 14.9433 17.0155 14.909 17.0814 14.9011C17.026 15.1621 17.0286 15.4969 16.9548 15.7236C16.794 16.2192 16.5752 16.6937 16.5752 17.3053C16.5752 18.6023 17.6402 19.6673 18.9372 19.6673C20.2342 19.6673 21.2992 18.6023 21.2992 17.3053C21.2992 16.6937 21.0804 16.2166 20.9196 15.7236C20.8326 15.4547 20.8089 15.0751 20.7509 14.7535C21.1832 14.8537 21.3783 14.9433 21.9741 14.9433C22.2061 14.9433 22.4328 14.8932 22.6489 14.8378V15.4073C22.6094 15.5391 22.6094 15.6761 22.6489 15.808V20.8905C22.6305 20.9801 22.6305 21.075 22.6489 21.1646V23.0416C22.6489 23.4238 22.3563 23.7164 21.9741 23.7164H13.8758C13.4935 23.7164 13.2009 23.4238 13.2009 23.0416V14.8378C13.4171 14.8932 13.6438 14.9433 13.8758 14.9433C14.432 14.9433 14.9223 14.7271 15.352 14.4371ZM23.9987 16.293H24.6735C25.0558 16.293 25.3484 16.5856 25.3484 16.9679V19.6673C25.3484 20.0495 25.0558 20.3422 24.6735 20.3422H23.9987V16.293Z" fill="#3E197C"/>
</svg>
