<svg width="35" height="34" viewBox="0 0 35 34" fill="none" xmlns="http://www.w3.org/2000/svg">
<rect x="1.80958" y="0.905605" width="31.6568" height="31.6568" rx="15.8284" fill="#FFA915" stroke="#3E197C" stroke-width="1.81121"/>
<path d="M11.1779 13.269H24.8925" stroke="#3E197C" stroke-width="2.65071" stroke-linecap="round"/>
<path d="M13.2121 14.3184C13.1716 13.7513 13.6207 13.269 14.1892 13.269H21.8811C22.4497 13.269 22.8988 13.7513 22.8583 14.3184L22.0186 26.0737C21.982 26.5863 21.5554 26.9835 21.0415 26.9835H15.0288C14.5149 26.9835 14.0884 26.5863 14.0517 26.0737L13.2121 14.3184Z" stroke="#3E197C" stroke-width="2.65071"/>
<path d="M18.0352 10.3301V8.37091C18.0352 7.82988 18.4738 7.3913 19.0148 7.3913H20.4842" stroke="#3E197C" stroke-width="2.65071" stroke-linecap="round"/>
<path d="M13.4905 11.1486C13.5692 10.6762 13.9779 10.33 14.4568 10.33H21.6135C22.0924 10.33 22.5011 10.6762 22.5798 11.1486L22.9332 13.2689H13.1371L13.4905 11.1486Z" fill="#3E197C" stroke="#3E197C" stroke-width="2.65071"/>
</svg>
